<svg width="24" height="43" viewBox="0 0 24 43" fill="none" xmlns="http://www.w3.org/2000/svg">
<path d="M22.9957 19.152L5.33739 1.52489C5.04736 1.23248 4.70231 1.00038 4.32212 0.841989C3.94194 0.683599 3.53416 0.602051 3.12231 0.602051C2.71045 0.602051 2.30267 0.683599 1.92249 0.841989C1.54231 1.00038 1.19725 1.23248 0.907225 1.52489C0.326152 2.10943 0 2.90016 0 3.72438C0 4.54859 0.326152 5.33932 0.907225 5.92386L16.3504 21.523L0.907225 36.9662C0.326152 37.5508 0 38.3415 0 39.1657C0 39.9899 0.326152 40.7807 0.907225 41.3652C1.19617 41.66 1.54074 41.8945 1.92097 42.0552C2.3012 42.2158 2.70953 42.2994 3.12231 42.3011C3.53509 42.2994 3.94342 42.2158 4.32365 42.0552C4.70388 41.8945 5.04845 41.66 5.33739 41.3652L22.9957 23.7381C23.3123 23.446 23.5651 23.0914 23.7379 22.6967C23.9108 22.3021 24 21.8759 24 21.445C24 21.0142 23.9108 20.588 23.7379 20.1933C23.5651 19.7987 23.3123 19.4441 22.9957 19.152Z" fill="black"/>
</svg>
