<svg width="35" height="26" viewBox="0 0 35 26" fill="none" xmlns="http://www.w3.org/2000/svg">
<g clip-path="url(#clip0_225_1243)">
<path d="M31.5411 2.01784V4.01754H12.998V2.01784H31.5411ZM31.5411 6.01723V8.01682H12.998V6.01723H31.5411ZM31.5411 10.0165V12.0161H12.998V10.0165H31.5411ZM31.5411 14.0158V16.0154H-5.98648V14.0158H31.5411ZM31.5411 18.0151V20.0147H-5.98648V18.0151H31.5411ZM31.5411 22.019V24.0187H-5.98648V22.0144L31.5411 22.019Z" fill="#F4F4F5"/>
<path d="M-6 0H31.5275V1.9997H-6V0ZM-6 23.9958H31.5275V26H-6V23.9958ZM-6 19.9965H31.5275V22.0145H-6V19.9965ZM-6 15.9971H31.5275V17.9968H-6V15.9971ZM-6 11.9979H31.5275V13.9976H-6V11.9979ZM-6 7.99857H31.5275V9.99827H-6V7.99857ZM-6 3.99928H31.5275V5.99898H-6V3.99928Z" fill="#F90805"/>
<path d="M-6 0.0183524H13.0198V14.0159H-6V0.0183524Z" fill="#0437A0"/>
<path d="M11.4349 0.71076L11.607 1.26569H12.1677L11.7262 1.60508L11.8985 2.16001L11.457 1.81603L11.0155 2.16001L11.192 1.60508L10.7505 1.26569H11.3112L11.4835 0.71076H11.4349ZM-4.41939 6.29231L-4.24725 6.84724H-3.69095L-4.13246 7.18663L-3.9559 7.74156L-4.3974 7.39758L-4.8389 7.74156L-4.66665 7.18663L-5.10815 6.84724H-4.57396L-4.40182 6.29231H-4.41939ZM-2.83005 7.66822L-2.66222 8.22315H-2.10151L-2.54301 8.56713L-2.37087 9.11747L-2.81237 8.77349L-3.25387 9.11747L-3.08174 8.56713L-3.52324 8.22315H-2.96252L-2.78586 7.66822H-2.83005ZM9.84983 7.66822L10.0221 8.22315H10.5828L10.1413 8.56713L10.3134 9.11747L9.87193 8.77349L9.43043 9.11747L9.60709 8.56713L9.16559 8.22315H9.7262L9.89844 7.66822H9.84983ZM6.67989 7.66822L6.85203 8.22315H7.41274L6.97124 8.56713L7.14349 9.11747L6.70198 8.77349L6.26048 9.11747L6.43704 8.56713L5.99554 8.22315H6.55625L6.7285 7.66822H6.67989ZM3.50994 7.66822L3.68208 8.22315H4.25605L3.81455 8.56713L3.98669 9.11747L3.54519 8.77349L3.10369 9.11747L3.28036 8.56713L2.83885 8.22315H3.39957L3.57171 7.66822H3.50994ZM0.335582 7.66822L0.512139 8.22315H1.07285L0.631352 8.56713L0.80349 9.11747L0.361989 8.77349L-0.0795107 9.11747L0.0927348 8.56713L-0.348766 8.22315H0.211948L0.379667 7.66822H0.335582ZM-1.24502 6.29231L-1.07289 6.84724H-0.516592L-0.958093 7.18663L-0.785847 7.74156L-1.22735 7.39758L-1.66885 7.74156L-1.49671 7.18663L-1.93821 6.84724H-1.3775L-1.20094 6.29231H-1.24502ZM8.26491 6.29231L8.43705 6.84724H8.99777L8.55626 7.18663L8.7284 7.74156L8.2869 7.39758L7.8454 7.74156L8.02207 7.18663L7.58057 6.84724H8.14128L8.31342 6.29231H8.26491ZM11.4349 6.29231L11.607 6.84724H12.1677L11.7262 7.18663L11.8985 7.74156L11.457 7.39758L11.0155 7.74156L11.192 7.18663L10.7505 6.84724H11.3112L11.4835 6.29231H11.4349ZM11.4349 9.08544L11.607 9.63578H12.1677L11.7262 9.97976L11.8985 10.5347L11.457 10.1907L11.0155 10.5347L11.192 9.97976L10.7505 9.63578H11.3112L11.4835 9.08544H11.4349ZM8.26491 9.08544L8.43705 9.63578H8.99777L8.55626 9.97976L8.7284 10.5347L8.2869 10.1907L7.8454 10.5347L8.02207 9.97976L7.58057 9.63578H8.14128L8.31342 9.08544H8.26491ZM-1.24502 9.08544L-1.07289 9.63578H-0.516592L-0.958093 9.97976L-0.785847 10.5347L-1.22735 10.1907L-1.66885 10.5347L-1.49671 9.97976L-1.93821 9.63578H-1.3775L-1.20094 9.08544H-1.24502ZM-2.83005 10.4613L-2.66222 11.0163H-2.10151L-2.54301 11.3557L-2.37087 11.9106L-2.81237 11.5666L-3.25387 11.9106L-3.08174 11.3557L-3.52324 11.0163H-2.96252L-2.78586 10.4613H-2.83005ZM9.84983 10.4613L10.0221 11.0163H10.5828L10.1413 11.3557L10.3134 11.9106L9.87193 11.5666L9.43043 11.9106L9.60709 11.3557L9.16559 11.0163H9.7262L9.89844 10.4613H9.84983ZM6.67989 10.4613L6.85203 11.0163H7.41274L6.97124 11.3557L7.14349 11.9106L6.70198 11.5666L6.26048 11.9106L6.43704 11.3557L5.99554 11.0163H6.55625L6.7285 10.4613H6.67989ZM3.50994 10.4613L3.68208 11.0163H4.25605L3.81455 11.3557L3.98669 11.9106L3.54519 11.5666L3.10369 11.9106L3.28036 11.3557L2.83885 11.0163H3.39957L3.57171 10.4613H3.50994ZM0.335582 10.4613L0.512139 11.0163H1.07285L0.631352 11.3557L0.80349 11.9106L0.361989 11.5666L-0.0795107 11.9106L0.0927348 11.3557L-0.348766 11.0163H0.211948L0.379667 10.4613H0.335582ZM-4.41939 9.08544L-4.24725 9.63578H-3.69095L-4.13246 9.97976L-3.9559 10.5347L-4.3974 10.1907L-4.8389 10.5347L-4.66665 9.97976L-5.10815 9.63578H-4.57396L-4.40182 9.08544H-4.41939ZM-4.41939 11.8739L-4.24725 12.4289H-3.69095L-4.13246 12.7683L-3.9559 13.3232L-4.3974 12.9792L-4.8389 13.3232L-4.66665 12.7683L-5.10815 12.4289H-4.57396L-4.40182 11.8739H-4.41939ZM-1.24502 11.8739L-1.07289 12.4289H-0.516592L-0.958093 12.7683L-0.785847 13.3232L-1.22735 12.9792L-1.66885 13.3232L-1.49671 12.7683L-1.93821 12.4289H-1.3775L-1.20094 11.8739H-1.24502ZM8.26491 11.8739L8.43705 12.4289H8.99777L8.55626 12.7683L8.7284 13.3232L8.2869 12.9792L7.8454 13.3232L8.02207 12.7683L7.58057 12.4289H8.14128L8.31342 11.8739H8.26491ZM11.4349 11.8739L11.607 12.4289H12.1677L11.7262 12.7683L11.8985 13.3232L11.457 12.9792L11.0155 13.3232L11.192 12.7683L10.7505 12.4289H11.3112L11.4835 11.8739H11.4349ZM-2.80795 4.89805L-2.64024 5.45298H-2.07952L-2.52102 5.79236L-2.34878 6.3474L-2.79028 6.00343L-3.23178 6.3474L-3.05964 5.79236L-3.50114 5.45298H-2.94043L-2.76376 4.89805H-2.80795ZM-2.80795 2.10503L-2.64024 2.65996H-2.07952L-2.52102 3.00394L-2.34878 3.55428L-2.79028 3.2103L-3.23178 3.55428L-3.05964 3.00394L-3.50114 2.65996H-2.94043L-2.76376 2.10503H-2.80795ZM9.87193 2.10503L10.0442 2.65996H10.6048L10.1633 3.00394L10.3355 3.55428L9.89402 3.2103L9.45252 3.55428L9.62908 3.00394L9.18758 2.65996H9.74829L9.92054 2.10503H9.87193ZM6.70198 2.10503L6.87412 2.65996H7.43484L6.99334 3.00394L7.16558 3.55428L6.72408 3.2103L6.28258 3.55428L6.45914 3.00394L6.01764 2.65996H6.57835L6.75049 2.10503H6.70198ZM3.53204 2.10503L3.70418 2.65996H4.25605L3.81455 3.00394L3.98669 3.55428L3.54519 3.2103L3.10369 3.55428L3.28036 3.00394L2.83885 2.65996H3.39957L3.57171 2.10503H3.53204ZM0.35757 2.10503L0.534235 2.65996H1.09495L0.653449 3.00394L0.825587 3.55428L0.384086 3.2103L-0.0574141 3.55428L0.114831 3.00394L-0.326669 2.65996H0.233937L0.401763 2.10503H0.35757ZM-4.3974 3.48093L-4.22515 4.03127H-3.69095L-4.13246 4.37525L-3.9559 4.92559L-4.3974 4.5862L-4.8389 4.92559L-4.66665 4.37525L-5.10815 4.03127H-4.57396L-4.40182 3.48093H-4.3974ZM9.87193 4.85684L10.0442 5.41177H10.6048L10.1633 5.75116L10.3355 6.30609L9.89402 5.96211L9.45252 6.30609L9.62908 5.75116L9.18758 5.41177H9.74829L9.92054 4.85684H9.87193ZM6.70198 4.85684L6.87412 5.41177H7.43484L6.99334 5.75116L7.16558 6.30609L6.72408 5.96211L6.28258 6.30609L6.45914 5.75116L6.01764 5.41177H6.57835L6.75049 4.85684H6.70198ZM3.53204 4.85684L3.70418 5.41177H4.25605L3.81455 5.75116L3.98669 6.30609L3.54519 5.96211L3.10369 6.30609L3.28036 5.75116L2.83885 5.41177H3.39957L3.57171 4.85684H3.53204ZM0.35757 4.85684L0.534235 5.41177H1.09495L0.653449 5.75116L0.825587 6.30609L0.384086 5.96211L-0.0574141 6.30609L0.114831 5.75116L-0.326669 5.41177H0.233937L0.401763 4.85684H0.35757ZM-1.22293 3.48093L-1.05079 4.03127H-0.494495L-0.935996 4.37525L-0.763858 4.92559L-1.20536 4.5862L-1.64686 4.92559L-1.47461 4.37525L-1.91611 4.03127H-1.3554L-1.17884 3.48093H-1.22293ZM-1.22293 0.687806L-1.05079 1.24274H-0.494495L-0.935996 1.58212L-0.763858 2.13705L-1.20536 1.79308L-1.64686 2.13705L-1.47461 1.58212L-1.91611 1.24274H-1.3554L-1.17884 0.687806H-1.22293ZM-4.3974 0.687806L-4.22515 1.24274H-3.69095L-4.13246 1.58212L-3.9559 2.13705L-4.3974 1.79308L-4.8389 2.13705L-4.66665 1.58212L-5.10815 1.24274H-4.57396L-4.40182 0.687806H-4.3974ZM1.94702 11.851L2.11915 12.406H2.67545L2.23395 12.7453L2.40619 13.3003L1.96469 12.9563L1.52319 13.3003L1.69533 12.7453L1.25383 12.406H1.81454L1.98679 11.851H1.94702ZM1.94702 9.06249L2.11915 9.61283H2.67545L2.23395 9.9568L2.40619 10.5117L1.96469 10.1678L1.52319 10.5117L1.69533 9.9568L1.25383 9.61283H1.81454L1.98679 9.06249H1.94702ZM1.94702 6.26936L2.11915 6.82429H2.67545L2.23395 7.16379L2.40619 7.71872L1.96469 7.37474L1.52319 7.71872L1.69533 7.16379L1.25383 6.82429H1.81454L1.98679 6.26936H1.94702ZM1.94702 3.48093L2.11915 4.03127H2.67545L2.23395 4.37525L2.40619 4.92559L1.96469 4.5862L1.52319 4.92559L1.69533 4.37525L1.25383 4.03127H1.81454L1.98679 3.48093H1.94702ZM1.94702 0.687806L2.11915 1.24274H2.67545L2.23395 1.58212L2.40619 2.13705L1.96469 1.79308L1.52319 2.13705L1.69533 1.58212L1.25383 1.24274H1.81454L1.98679 0.687806H1.94702ZM5.11696 11.851L5.2892 12.406H5.84992L5.40842 12.7453L5.58056 13.3003L5.13906 12.9563L4.69755 13.3003L4.87411 12.7453L4.43261 12.406H4.99333L5.16557 11.851H5.11696ZM5.11696 9.06249L5.2892 9.61283H5.84992L5.40842 9.9568L5.58056 10.5117L5.13906 10.1678L4.69755 10.5117L4.87411 9.9568L4.43261 9.61283H4.99333L5.16557 9.06249H5.11696ZM5.11696 6.26936L5.2892 6.82429H5.84992L5.40842 7.16379L5.58056 7.71872L5.13906 7.37474L4.69755 7.71872L4.87411 7.16379L4.43261 6.82429H4.99333L5.16557 6.26936H5.11696ZM5.11696 3.48093L5.2892 4.03127H5.84992L5.40842 4.37525L5.58056 4.92559L5.13906 4.5862L4.69755 4.92559L4.87411 4.37525L4.43261 4.03127H4.99333L5.16557 3.48093H5.11696ZM5.11696 0.687806L5.2892 1.24274H5.84992L5.40842 1.58212L5.58056 2.13705L5.13906 1.79308L4.69755 2.13705L4.87411 1.58212L4.43261 1.24274H4.99333L5.16557 0.687806H5.11696ZM8.2869 3.48093L8.45915 4.03127H9.01986L8.57836 4.37525L8.7505 4.92559L8.309 4.5862L7.8675 4.92559L8.04416 4.37525L7.60266 4.03127H8.16338L8.33552 3.48093H8.2869ZM8.2869 0.687806L8.45915 1.24274H9.01986L8.57836 1.58212L8.7505 2.13705L8.309 1.79308L7.8675 2.13705L8.04416 1.58212L7.60266 1.24274H8.16338L8.33552 0.687806H8.2869ZM11.457 3.48093L11.6291 4.03127H12.1898L11.7483 4.37525L11.9206 4.92559L11.479 4.5862L11.0375 4.92559L11.2141 4.37525L10.7726 4.03127H11.3333L11.5055 3.48093H11.457Z" fill="#F4F4F5"/>
</g>
<rect x="0.75" y="0.75" width="24.5" height="24.5" rx="12.25" stroke="#12395D" stroke-width="1.5"/>
<mask id="path-4-outside-1_225_1243" maskUnits="userSpaceOnUse" x="20.1558" y="6.00018" width="15" height="15" fill="black">
<rect fill="white" x="20.1558" y="6.00018" width="15" height="15"/>
<path d="M32.6887 13.2621C32.6887 16.1804 30.323 18.5461 27.4047 18.5461C24.4864 18.5461 22.1207 16.1804 22.1207 13.2621C22.1207 10.3439 24.4864 7.97818 27.4047 7.97818C30.323 7.97818 32.6887 10.3439 32.6887 13.2621Z"/>
<path d="M27.3916 15.9218L24.4981 13.0268C24.3517 12.8794 24.2695 12.6801 24.2695 12.4723C24.2695 12.2645 24.3517 12.0651 24.4981 11.9177C24.57 11.8446 24.6558 11.7866 24.7504 11.747C24.845 11.7074 24.9465 11.6869 25.0491 11.6869C25.1516 11.6869 25.2532 11.7074 25.3478 11.747C25.4423 11.7866 25.5281 11.8446 25.6001 11.9177L27.3916 13.7102L32.3088 8.79703C32.3807 8.72392 32.4665 8.66586 32.5611 8.62623C32.6557 8.5866 32.7572 8.56621 32.8598 8.56621C32.9623 8.56621 33.0639 8.5866 33.1585 8.62623C33.2531 8.66586 33.3388 8.72392 33.4108 8.79703C33.4839 8.86902 33.5419 8.95484 33.5815 9.04948C33.6211 9.14413 33.6415 9.24569 33.6415 9.3483C33.6415 9.45091 33.6211 9.55251 33.5815 9.64716C33.5419 9.7418 33.4839 9.82762 33.4108 9.89961L27.3916 15.9218Z"/>
<path d="M32.069 12.9738C32.11 13.5903 32.0291 14.2087 31.831 14.7939C31.6328 15.379 31.3213 15.9193 30.9143 16.3839C30.5073 16.8485 30.0127 17.2282 29.4589 17.5014C28.905 17.7746 28.3028 17.9358 27.6866 17.9759C27.0682 18.0162 26.448 17.9336 25.8617 17.7331C25.2753 17.5325 24.7344 17.2178 24.2701 16.8072C23.8058 16.3966 23.4272 15.8981 23.1562 15.3406C22.8853 14.783 22.7272 14.1773 22.6912 13.5583C22.6511 12.9424 22.7327 12.3246 22.9312 11.7401C23.1298 11.1557 23.4414 10.6162 23.8484 10.1523C24.2554 9.68838 24.7497 9.30921 25.3032 9.03647C25.8566 8.76373 26.4584 8.60273 27.074 8.56266C28.0534 8.49797 29.0284 8.74221 29.8618 9.26102L30.9051 8.07836C29.5352 7.1482 27.8522 6.80034 26.226 7.11128C24.5999 7.42221 23.1638 8.36649 22.2334 9.73651C21.7727 10.4153 21.4502 11.1782 21.2845 11.9818C21.1187 12.7854 21.113 13.6138 21.2676 14.4196C21.4222 15.2254 21.734 15.9928 22.1853 16.678C22.6366 17.3631 23.2185 17.9524 23.8977 18.4124C24.5755 18.8728 25.3373 19.1951 26.1396 19.361C26.9419 19.5269 27.769 19.533 28.5736 19.3791C29.3783 19.2251 30.1447 18.9141 30.8292 18.4638C31.5137 18.0135 32.1028 17.4327 32.563 16.7546C33.3353 15.606 33.704 14.2331 33.6111 12.8518C33.5938 12.5915 33.5604 12.3326 33.5111 12.0764C33.5827 12.0848 32.069 12.9738 32.069 12.9738Z"/>
</mask>
<path d="M32.6887 13.2621C32.6887 16.1804 30.323 18.5461 27.4047 18.5461C24.4864 18.5461 22.1207 16.1804 22.1207 13.2621C22.1207 10.3439 24.4864 7.97818 27.4047 7.97818C30.323 7.97818 32.6887 10.3439 32.6887 13.2621Z" fill="white"/>
<path d="M27.3916 15.9218L24.4981 13.0268C24.3517 12.8794 24.2695 12.6801 24.2695 12.4723C24.2695 12.2645 24.3517 12.0651 24.4981 11.9177C24.57 11.8446 24.6558 11.7866 24.7504 11.747C24.845 11.7074 24.9465 11.6869 25.0491 11.6869C25.1516 11.6869 25.2532 11.7074 25.3478 11.747C25.4423 11.7866 25.5281 11.8446 25.6001 11.9177L27.3916 13.7102L32.3088 8.79703C32.3807 8.72392 32.4665 8.66586 32.5611 8.62623C32.6557 8.5866 32.7572 8.56621 32.8598 8.56621C32.9623 8.56621 33.0639 8.5866 33.1585 8.62623C33.2531 8.66586 33.3388 8.72392 33.4108 8.79703C33.4839 8.86902 33.5419 8.95484 33.5815 9.04948C33.6211 9.14413 33.6415 9.24569 33.6415 9.3483C33.6415 9.45091 33.6211 9.55251 33.5815 9.64716C33.5419 9.7418 33.4839 9.82762 33.4108 9.89961L27.3916 15.9218Z" fill="#12395D"/>
<path d="M32.069 12.9738C32.11 13.5903 32.0291 14.2087 31.831 14.7939C31.6328 15.379 31.3213 15.9193 30.9143 16.3839C30.5073 16.8485 30.0127 17.2282 29.4589 17.5014C28.905 17.7746 28.3028 17.9358 27.6866 17.9759C27.0682 18.0162 26.448 17.9336 25.8617 17.7331C25.2753 17.5325 24.7344 17.2178 24.2701 16.8072C23.8058 16.3966 23.4272 15.8981 23.1562 15.3406C22.8853 14.783 22.7272 14.1773 22.6912 13.5583C22.6511 12.9424 22.7327 12.3246 22.9312 11.7401C23.1298 11.1557 23.4414 10.6162 23.8484 10.1523C24.2554 9.68838 24.7497 9.30921 25.3032 9.03647C25.8566 8.76373 26.4584 8.60273 27.074 8.56266C28.0534 8.49797 29.0284 8.74221 29.8618 9.26102L30.9051 8.07836C29.5352 7.1482 27.8522 6.80034 26.226 7.11128C24.5999 7.42221 23.1638 8.36649 22.2334 9.73651C21.7727 10.4153 21.4502 11.1782 21.2845 11.9818C21.1187 12.7854 21.113 13.6138 21.2676 14.4196C21.4222 15.2254 21.734 15.9928 22.1853 16.678C22.6366 17.3631 23.2185 17.9524 23.8977 18.4124C24.5755 18.8728 25.3373 19.1951 26.1396 19.361C26.9419 19.5269 27.769 19.533 28.5736 19.3791C29.3783 19.2251 30.1447 18.9141 30.8292 18.4638C31.5137 18.0135 32.1028 17.4327 32.563 16.7546C33.3353 15.606 33.704 14.2331 33.6111 12.8518C33.5938 12.5915 33.5604 12.3326 33.5111 12.0764C33.5827 12.0848 32.069 12.9738 32.069 12.9738Z" fill="#12395D"/>
<path d="M27.3916 15.9218L26.6844 16.6288L27.3916 17.3364L28.0989 16.6288L27.3916 15.9218ZM24.4981 13.0268L23.7886 13.7315L23.7908 13.7337L24.4981 13.0268ZM24.4981 11.9177L25.2076 12.6225L25.2108 12.6192L24.4981 11.9177ZM24.7504 11.747L24.364 10.8246H24.364L24.7504 11.747ZM25.3478 11.747L25.7341 10.8246L25.7341 10.8246L25.3478 11.747ZM25.6001 11.9177L24.8874 12.6192L24.8928 12.6247L25.6001 11.9177ZM27.3916 13.7102L26.6844 14.4172L27.3912 15.1244L28.0985 14.4176L27.3916 13.7102ZM32.3088 8.79703L33.0156 9.50444L33.0215 9.49851L32.3088 8.79703ZM32.5611 8.62623L32.9475 9.54857L32.9475 9.54856L32.5611 8.62623ZM32.8598 8.56621V7.56621V8.56621ZM33.1585 8.62623L32.7721 9.54856L32.7721 9.54857L33.1585 8.62623ZM33.4108 8.79703L32.6981 9.49851L32.7035 9.50397L32.7089 9.50935L33.4108 8.79703ZM33.5815 9.04948L34.504 8.66344L34.504 8.66343L33.5815 9.04948ZM33.5815 9.64716L34.504 10.0332L34.504 10.0332L33.5815 9.64716ZM33.4108 9.89961L32.7089 9.18727L32.7035 9.19269L33.4108 9.89961ZM32.069 12.9738L31.5626 12.1115L31.0303 12.4241L31.0712 13.0401L32.069 12.9738ZM30.9143 16.3839L30.1622 15.7249V15.7249L30.9143 16.3839ZM29.4589 17.5014L29.0165 16.6045L29.0165 16.6045L29.4589 17.5014ZM27.6866 17.9759L27.6217 16.978L27.6216 16.978L27.6866 17.9759ZM25.8617 17.7331L26.1853 16.7869L26.1853 16.7869L25.8617 17.7331ZM22.6912 13.5583L23.6895 13.5002L23.6891 13.4934L22.6912 13.5583ZM22.9312 11.7401L21.9844 11.4184L21.9844 11.4184L22.9312 11.7401ZM25.3032 9.03647L24.8611 8.13948V8.13948L25.3032 9.03647ZM27.074 8.56266L27.139 9.56055L27.1399 9.56049L27.074 8.56266ZM29.8618 9.26102L29.3333 10.11L30.0518 10.5572L30.6117 9.92258L29.8618 9.26102ZM30.9051 8.07836L31.655 8.73992L32.406 7.88869L31.4668 7.25105L30.9051 8.07836ZM26.226 7.11128L26.4139 8.09348L26.226 7.11128ZM22.2334 9.73651L21.4062 9.1747L21.406 9.17486L22.2334 9.73651ZM21.2845 11.9818L22.2639 12.1838L21.2845 11.9818ZM22.1853 16.678L23.0204 16.1279H23.0204L22.1853 16.678ZM23.8977 18.4124L24.4596 17.5852L24.4584 17.5843L23.8977 18.4124ZM26.1396 19.361L25.9371 20.3403L26.1396 19.361ZM28.5736 19.3791L28.7615 20.3613L28.5736 19.3791ZM30.8292 18.4638L31.3788 19.2993H31.3788L30.8292 18.4638ZM32.563 16.7546L33.3905 17.3161L33.3928 17.3126L32.563 16.7546ZM33.6111 12.8518L32.6133 12.9183L32.6134 12.919L33.6111 12.8518ZM33.5111 12.0764L33.6285 11.0833L32.271 10.9228L32.5291 12.2652L33.5111 12.0764ZM31.6887 13.2621C31.6887 15.6281 29.7707 17.5461 27.4047 17.5461V19.5461C30.8752 19.5461 33.6887 16.7327 33.6887 13.2621H31.6887ZM27.4047 17.5461C25.0387 17.5461 23.1207 15.6281 23.1207 13.2621H21.1207C21.1207 16.7327 23.9342 19.5461 27.4047 19.5461V17.5461ZM23.1207 13.2621C23.1207 10.8962 25.0387 8.97818 27.4047 8.97818V6.97818C23.9342 6.97818 21.1207 9.79161 21.1207 13.2621H23.1207ZM27.4047 8.97818C29.7707 8.97818 31.6887 10.8962 31.6887 13.2621H33.6887C33.6887 9.79161 30.8752 6.97818 27.4047 6.97818V8.97818ZM28.0989 15.2149L25.2054 12.3199L23.7908 13.7337L26.6844 16.6288L28.0989 15.2149ZM25.2075 12.322C25.2473 12.3621 25.2695 12.4161 25.2695 12.4723H23.2695C23.2695 12.9441 23.4561 13.3968 23.7886 13.7315L25.2075 12.322ZM25.2695 12.4723C25.2695 12.5284 25.2473 12.5824 25.2075 12.6225L23.7886 11.213C23.456 11.5478 23.2695 12.0006 23.2695 12.4723H25.2695ZM25.2108 12.6192C25.1896 12.6408 25.1644 12.6578 25.1368 12.6693L24.364 10.8246C24.1472 10.9155 23.9505 11.0485 23.7854 11.2162L25.2108 12.6192ZM25.1368 12.6693C25.1091 12.6809 25.0793 12.6869 25.0491 12.6869V10.6869C24.8137 10.6869 24.5809 10.7338 24.364 10.8246L25.1368 12.6693ZM25.0491 12.6869C25.0188 12.6869 24.989 12.6809 24.9614 12.6693L25.7341 10.8246C25.5173 10.7338 25.2844 10.6869 25.0491 10.6869V12.6869ZM24.9614 12.6693C24.9338 12.6578 24.9086 12.6408 24.8874 12.6192L26.3128 11.2162C26.1476 11.0485 25.9509 10.9155 25.7341 10.8246L24.9614 12.6693ZM24.8928 12.6247L26.6844 14.4172L28.0989 13.0033L26.3074 11.2108L24.8928 12.6247ZM28.0985 14.4176L33.0156 9.50441L31.602 8.08964L26.6848 13.0029L28.0985 14.4176ZM33.0215 9.49851C33.0004 9.51989 32.9753 9.53692 32.9475 9.54857L32.1747 7.70389C31.9577 7.79479 31.7611 7.92795 31.5961 8.09554L33.0215 9.49851ZM32.9475 9.54856C32.9196 9.56025 32.8898 9.56621 32.8598 9.56621V7.56621C32.6247 7.56621 32.3918 7.61295 32.1747 7.70389L32.9475 9.54856ZM32.8598 9.56621C32.8298 9.56621 32.8 9.56025 32.7721 9.54856L33.5448 7.70389C33.3278 7.61295 33.0949 7.56621 32.8598 7.56621V9.56621ZM32.7721 9.54857C32.7443 9.53692 32.7191 9.51989 32.6981 9.49851L34.1235 8.09554C33.9585 7.92795 33.7618 7.79479 33.5448 7.70389L32.7721 9.54857ZM32.7089 9.50935C32.6875 9.48826 32.6706 9.46317 32.659 9.43553L34.504 8.66343C34.4132 8.44651 34.2802 8.24978 34.1126 8.0847L32.7089 9.50935ZM32.659 9.43553C32.6474 9.40791 32.6415 9.37825 32.6415 9.3483H34.6415C34.6415 9.11314 34.5947 8.88035 34.504 8.66344L32.659 9.43553ZM32.6415 9.3483C32.6415 9.3184 32.6474 9.28878 32.659 9.26111L34.504 10.0332C34.5948 9.81624 34.6415 9.58341 34.6415 9.3483H32.6415ZM32.659 9.2611C32.6706 9.23347 32.6875 9.20837 32.7089 9.18729L34.1126 10.6119C34.2802 10.4469 34.4132 10.2501 34.504 10.0332L32.659 9.2611ZM32.7035 9.19269L26.6844 15.2149L28.0989 16.6288L34.1181 10.6065L32.7035 9.19269ZM31.0712 13.0401C31.1035 13.5255 31.0398 14.0125 30.8838 14.4732L32.7781 15.1146C33.0184 14.405 33.1165 13.655 33.0668 12.9075L31.0712 13.0401ZM30.8838 14.4732C30.7278 14.9338 30.4826 15.3592 30.1622 15.7249L31.6665 17.0429C32.1601 16.4794 32.5379 15.8242 32.7781 15.1146L30.8838 14.4732ZM30.1622 15.7249C29.8417 16.0906 29.4524 16.3895 29.0165 16.6045L29.9012 18.3982C30.573 18.0669 31.1728 17.6063 31.6665 17.0429L30.1622 15.7249ZM29.0165 16.6045C28.5806 16.8196 28.1066 16.9465 27.6217 16.978L27.7515 18.9738C28.499 18.9252 29.2295 18.7296 29.9012 18.3982L29.0165 16.6045ZM27.6216 16.978C27.135 17.0097 26.6468 16.9448 26.1853 16.7869L25.538 18.6792C26.2492 18.9225 27.0015 19.0226 27.7516 18.9738L27.6216 16.978ZM26.1853 16.7869C25.7238 16.629 25.298 16.3814 24.9325 16.0581L23.6076 17.5563C24.1707 18.0543 24.8268 18.436 25.538 18.6792L26.1853 16.7869ZM24.9325 16.0581C24.567 15.7349 24.269 15.3425 24.0556 14.9035L22.2568 15.7777C22.5854 16.4538 23.0445 17.0583 23.6076 17.5563L24.9325 16.0581ZM24.0556 14.9035C23.8423 14.4645 23.7179 13.9876 23.6895 13.5002L21.6929 13.6164C21.7366 14.367 21.9282 15.1015 22.2568 15.7777L24.0556 14.9035ZM23.6891 13.4934C23.6575 13.0084 23.7217 12.522 23.8781 12.0618L21.9844 11.4184C21.7436 12.1271 21.6447 12.8763 21.6933 13.6233L23.6891 13.4934ZM23.8781 12.0618C24.0344 11.6017 24.2798 11.1769 24.6001 10.8118L23.0967 9.49277C22.6031 10.0554 22.2252 10.7097 21.9844 11.4184L23.8781 12.0618ZM24.6001 10.8118C24.9205 10.4466 25.3096 10.1481 25.7452 9.93347L24.8611 8.13948C24.1898 8.4703 23.5903 8.93018 23.0967 9.49277L24.6001 10.8118ZM25.7452 9.93347C26.1808 9.7188 26.6544 9.59208 27.139 9.56055L27.0091 7.56477C26.2623 7.61337 25.5324 7.80866 24.8611 8.13948L25.7452 9.93347ZM27.1399 9.56049C27.9104 9.50959 28.6775 9.70174 29.3333 10.11L30.3903 8.41208C29.3792 7.78268 28.1963 7.48635 27.0081 7.56483L27.1399 9.56049ZM30.6117 9.92258L31.655 8.73992L30.1552 7.41681L29.1119 8.59946L30.6117 9.92258ZM31.4668 7.25105C29.8775 6.17193 27.9249 5.76831 26.0382 6.12907L26.4139 8.09348C27.7794 7.83237 29.1928 8.12447 30.3434 8.90568L31.4668 7.25105ZM26.0382 6.12907C24.1516 6.48983 22.4855 7.58538 21.4062 9.1747L23.0607 10.2983C23.8422 9.14759 25.0483 8.3546 26.4139 8.09348L26.0382 6.12907ZM21.406 9.17486C20.8715 9.96235 20.4974 10.8476 20.3051 11.7798L22.2639 12.1838C22.403 11.5089 22.6739 10.8681 23.0608 10.2982L21.406 9.17486ZM20.3051 11.7798C20.1128 12.7121 20.1062 13.6731 20.2855 14.608L22.2497 14.2312C22.1199 13.5544 22.1247 12.8587 22.2639 12.1838L20.3051 11.7798ZM20.2855 14.608C20.4648 15.5428 20.8266 16.4332 21.3502 17.2281L23.0204 16.1279C22.6414 15.5525 22.3795 14.908 22.2497 14.2312L20.2855 14.608ZM21.3502 17.2281C21.8738 18.0229 22.549 18.7068 23.337 19.2404L24.4584 17.5843C23.8881 17.1981 23.3994 16.7032 23.0204 16.1279L21.3502 17.2281ZM23.3358 19.2396C24.1222 19.7738 25.0062 20.1478 25.9371 20.3403L26.3421 18.3817C25.6684 18.2425 25.0288 17.9718 24.4596 17.5852L23.3358 19.2396ZM25.9371 20.3403C26.8681 20.5328 27.8278 20.5399 28.7615 20.3613L28.3857 18.3969C27.7101 18.5261 27.0157 18.521 26.3421 18.3817L25.9371 20.3403ZM28.7615 20.3613C29.6952 20.1826 30.5846 19.8218 31.3788 19.2993L30.2796 17.6284C29.7049 18.0065 29.0613 18.2677 28.3857 18.3969L28.7615 20.3613ZM31.3788 19.2993C32.1731 18.7768 32.8566 18.1029 33.3905 17.3161L31.7355 16.1931C31.3491 16.7626 30.8544 17.2503 30.2796 17.6284L31.3788 19.2993ZM33.3928 17.3126C34.2889 15.98 34.7166 14.3872 34.6088 12.7847L32.6134 12.919C32.6914 14.079 32.3817 15.2321 31.7331 16.1966L33.3928 17.3126ZM34.6089 12.7853C34.5888 12.484 34.5501 12.1842 34.4931 11.8876L32.5291 12.2652C32.5706 12.4809 32.5987 12.6991 32.6133 12.9183L34.6089 12.7853ZM33.3937 13.0695C33.2941 13.0577 32.9152 12.9976 32.6713 12.6169C32.4141 12.2154 32.5377 11.827 32.5837 11.711C32.6376 11.5752 32.7087 11.4851 32.7326 11.4555C32.7649 11.4154 32.7934 11.3866 32.8087 11.3718C32.8576 11.3241 32.8965 11.2977 32.8816 11.3086C32.8722 11.3154 32.8398 11.3376 32.7762 11.3783C32.6561 11.4554 32.483 11.5616 32.2996 11.6724C32.1182 11.7821 31.9339 11.8919 31.7944 11.9746C31.7248 12.0159 31.6666 12.0502 31.626 12.0742C31.6056 12.0862 31.5897 12.0956 31.5789 12.1019C31.5735 12.1051 31.5693 12.1076 31.5666 12.1092C31.5652 12.11 31.5642 12.1106 31.5635 12.111C31.5632 12.1112 31.5629 12.1113 31.5628 12.1114C31.5627 12.1114 31.5627 12.1115 31.5626 12.1115C31.5626 12.1115 31.5626 12.1115 31.5626 12.1115C31.5626 12.1115 31.5626 12.1115 32.069 12.9738C32.5754 13.8361 32.5755 13.8361 32.5755 13.8361C32.5755 13.836 32.5755 13.836 32.5756 13.836C32.5756 13.836 32.5757 13.8359 32.5758 13.8359C32.576 13.8357 32.5763 13.8356 32.5767 13.8353C32.5775 13.8349 32.5786 13.8342 32.5801 13.8333C32.5831 13.8316 32.5875 13.829 32.5931 13.8257C32.6045 13.819 32.621 13.8093 32.6419 13.797C32.6837 13.7723 32.7432 13.7371 32.8144 13.6949C32.9565 13.6107 33.1461 13.4977 33.3342 13.3841C33.5203 13.2716 33.7122 13.154 33.8557 13.062C33.924 13.0182 33.9981 12.9696 34.0578 12.9261C34.0774 12.9119 34.1415 12.8656 34.2048 12.8039C34.2235 12.7856 34.255 12.7537 34.2895 12.7109C34.3156 12.6785 34.3882 12.5861 34.4428 12.4483C34.4896 12.3305 34.6133 11.9405 34.3553 11.5379C34.1107 11.1561 33.7303 11.0953 33.6285 11.0833L33.3937 13.0695Z" fill="white" mask="url(#path-4-outside-1_225_1243)"/>
<defs>
<clipPath id="clip0_225_1243">
<rect width="26" height="26" rx="13" fill="white"/>
</clipPath>
</defs>
</svg>
