<svg width="16" height="17" viewBox="0 0 16 17" fill="none" xmlns="http://www.w3.org/2000/svg">
<g clip-path="url(#clip0_4201_52252)">
<path d="M8 16.9512C12.4145 16.9512 16 13.3657 16 8.95117C16 4.53663 12.4145 0.951172 8 0.951172C3.58545 0.951172 0 4.53663 0 8.95117C0 13.3657 3.58545 16.9512 8 16.9512ZM8 2.40572C11.6073 2.40572 14.5455 5.3439 14.5455 8.95117C14.5455 12.5584 11.6073 15.4966 8 15.4966C4.39273 15.4966 1.45455 12.5584 1.45455 8.95117C1.45455 5.3439 4.39273 2.40572 8 2.40572Z" fill="#F1FDFF"/>
<path d="M8.81724 3.83008V7.83408C8.81724 8.25875 8.79624 8.67641 8.75424 9.08708C8.71224 9.49308 8.65857 9.92475 8.59324 10.3821H7.41724C7.3519 9.92475 7.29824 9.49308 7.25624 9.08708C7.21424 8.67641 7.19324 8.25875 7.19324 7.83408V3.83008H8.81724Z" fill="#F1FDFF"/>
<path d="M6.99692 12.0854C6.94559 12.2161 6.91992 12.3537 6.91992 12.4984C6.91992 12.6477 6.94559 12.7877 6.99692 12.9184C7.05292 13.0444 7.12759 13.1541 7.22092 13.2474C7.31892 13.3407 7.43326 13.4131 7.56392 13.4644C7.69459 13.5204 7.83459 13.5484 7.98392 13.5484C8.12859 13.5484 8.26626 13.5204 8.39692 13.4644C8.52759 13.4131 8.63959 13.3407 8.73292 13.2474C8.83092 13.1541 8.90792 13.0444 8.96392 12.9184C9.01992 12.7877 9.04792 12.6477 9.04792 12.4984C9.04792 12.3537 9.01992 12.2161 8.96392 12.0854C8.90792 11.9547 8.83092 11.8427 8.73292 11.7494C8.63959 11.6561 8.52759 11.5814 8.39692 11.5254C8.26626 11.4694 8.12859 11.4414 7.98392 11.4414C7.83459 11.4414 7.69459 11.4694 7.56392 11.5254C7.43326 11.5814 7.31892 11.6561 7.22092 11.7494C7.12759 11.8427 7.05292 11.9547 6.99692 12.0854Z" fill="#F1FDFF"/>
</g>
<defs>
<clipPath id="clip0_4201_52252">
<rect width="16" height="16" fill="white" transform="translate(0 0.951172)"/>
</clipPath>
</defs>
</svg>
